<?xml version="1.0" encoding="utf-8"?>
<!-- Generator: Adobe Illustrator 21.1.0, SVG Export Plug-In . SVG Version: 6.00 Build 0)  -->
<svg version="1.1" id="Avances2" xmlns="http://www.w3.org/2000/svg" xmlns:xlink="http://www.w3.org/1999/xlink" x="0px" y="0px"
	 width="207.8px" height="69px" viewBox="0 0 207.8 69" style="enable-background:new 0 0 207.8 69;" xml:space="preserve">
<style type="text/css">
	.st0{fill:#FFFFFF;}
	.st1{fill:#0668B2;}
</style>
<rect x="0" y="16.9" class="st0" width="187.9" height="36.2"/>
<g>
	<path class="st1" d="M114.4,30.8c-2.9,0-4.6,1.6-5,5h9.9C119.1,33.8,118.1,30.8,114.4,30.8z"/>
	<path class="st1" d="M47.4,25.1H43v18.7h4.3c6.1,0,8.7-2.8,8.7-9.3S53.4,25.1,47.4,25.1z"/>
	<path class="st1" d="M172.4,41.1c0,2.6,3,3,4.7,3c3,0,4.5-1,4.5-2.9v-3c-1.1-0.1-2.3-0.2-3.6-0.2C176.3,38,172.4,38.3,172.4,41.1z"
		/>
	<path class="st1" d="M13.1,0C5.9,0,0,5.9,0,13.1V32h15.9l-6.4-6.4c-0.5-0.5-0.7-1.1-0.7-1.7s0.2-1.3,0.7-1.7c0.9-0.9,2.5-0.9,3.4,0
		l10.6,10.6c0.9,1,0.9,2.5,0,3.4L13,46.9c-0.5,0.5-1.1,0.7-1.7,0.7c-0.6,0-1.3-0.2-1.7-0.7c-0.9-1-0.9-2.5,0-3.4l6.6-6.6H0V69h194.7
		c7.2,0,13.1-5.9,13.1-13.1V0H13.1z M47.5,47.6h-7.4c-0.6,0-1-0.5-1-1V22.3c0-0.6,0.5-1,1-1h7.4c8.2,0,12.5,4.6,12.5,13.2
		C60,43.2,55.8,47.6,47.5,47.6z M69.1,46.6c0,0.6-0.5,1-1,1h-1.8c-0.6,0-1-0.5-1-1V28.3c0-0.6,0.5-1,1-1h1.8c0.6,0,1,0.5,1,1V46.6z
		 M69.2,24.9c0,0.6-0.5,1-1,1h-2.1c-0.6,0-1-0.5-1-1v-2.8c0-0.6,0.5-1,1-1h2.1c0.6,0,1,0.5,1,1V24.9z M80.3,47.9
		c-2.2,0-4.3-0.5-6.2-1.4c-0.4-0.2-0.6-0.5-0.6-0.9v-2c0-0.4,0.2-0.7,0.5-0.9s0.7-0.2,1,0c1.7,0.9,3.4,1.3,5.2,1.3
		c1.1,0,3.8-0.2,3.8-2.2c0-1.7-1.2-2.2-4.1-2.9c-2.6-0.7-6.3-1.7-6.3-5.8c0-2.8,1.9-6.1,7.3-6.1c1.7,0,3.5,0.4,5.3,1.2
		c0.4,0.2,0.6,0.5,0.6,1V31c0,0.4-0.2,0.7-0.5,0.9s-0.7,0.2-1,0.1c-1.4-0.7-2.9-1-4.3-1c-1.6,0-3.5,0.4-3.5,2.2
		c0,1.1,1.1,1.5,3.5,2.1c2.7,0.8,6.8,1.9,6.8,6.6C87.9,45.6,85,47.9,80.3,47.9z M102.8,46.5c0,0.5-0.3,0.9-0.8,1
		c-1,0.3-1.8,0.4-2.7,0.4c-3.8,0-5.8-2-5.8-5.8V31h-1.9c-0.6,0-1-0.5-1-1v-1.7c0-0.6,0.5-1,1-1h1.9v-4.1c0-0.6,0.5-1,1-1h1.9
		c0.6,0,1,0.5,1,1v4.1h4.2c0.6,0,1,0.5,1,1V30c0,0.6-0.5,1-1,1h-4.2v11.1c0,1.5,0.5,2,2.1,2c0.7,0,1.3-0.1,1.9-0.3
		c0.3-0.1,0.7-0.1,0.9,0.1c0.3,0.2,0.4,0.5,0.4,0.8L102.8,46.5C102.7,46.5,102.8,46.5,102.8,46.5z M123.4,38.6c0,0.5-0.4,0.9-1,0.9
		h-12.8c0,0.1,0,0.1,0.1,0.2c0,0.1,0.1,0.2,0.1,0.2c0.4,2.8,2.1,4,5.5,4c2.1,0,4.1-0.4,5.5-1.2c0.3-0.2,0.7-0.2,1,0s0.5,0.5,0.5,0.9
		v1.9c0,0.4-0.2,0.8-0.6,0.9c-1.7,0.8-4.1,1.3-6.5,1.3c-3.6,0-9.7-1.3-9.7-10.1c0-5.2,2.4-10.8,9.2-10.8c6.6,0,8.9,5.5,8.9,10.6
		C123.4,38.2,123.4,38.5,123.4,38.6z M143.2,30.7c0,0.3-0.2,0.7-0.4,0.9c-0.3,0.2-0.6,0.2-1,0.1c-1.6-0.6-3.3-0.9-4.8-0.9
		c-4.1,0-5.9,2-5.9,6.6s1.8,6.6,5.9,6.6c1.6,0,3.2-0.3,4.7-0.9c0.3-0.1,0.7-0.1,1,0.1s0.5,0.5,0.5,0.9v1.8c0,0.4-0.3,0.8-0.7,1
		c-1.8,0.7-3.8,1-5.7,1c-6.2,0-9.6-3.7-9.6-10.5c0-9.1,6-10.5,9.6-10.5c1.8,0,3.7,0.3,5.7,1c0.4,0.1,0.7,0.5,0.7,1V30.7z
		 M164.1,46.6c0,0.6-0.5,1-1,1h-1.9c-0.6,0-1-0.5-1-1v-12c0-2-0.5-3.8-4.4-3.8c-1.5,0-3.1,0.3-4.8,0.9v14.8c0,0.6-0.5,1-1,1h-1.8
		c-0.6,0-1-0.5-1-1V29.9c0-0.4,0.2-0.7,0.6-0.9c0.9-0.5,4.2-2.1,8.3-2.1c5.2,0,8.1,2.8,8.1,7.7v12H164.1z M185.6,41.2
		c0,6.2-6.5,6.7-8.4,6.7c-4.2,0-8.7-1.8-8.7-6.7c0-4.4,3.7-7,9.8-7c1.2,0,2.3,0.1,3.3,0.2c-0.4-2.4-1.9-3.5-4.9-3.5
		c-2.3,0-4.3,0.6-4.9,0.8c-0.3,0.1-0.7,0-0.9-0.2c-0.3-0.2-0.4-0.5-0.4-0.8v-1.8c0-0.4,0.3-0.8,0.7-1c1-0.3,3.1-0.9,5.6-0.9
		c5.9,0,8.8,2.9,8.8,8.7L185.6,41.2L185.6,41.2z"/>
	<path class="st0" d="M47.5,21.3h-7.4c-0.6,0-1,0.5-1,1v24.2c0,0.6,0.5,1,1,1h7.4c8.3,0,12.5-4.4,12.5-13.1
		C60,25.8,55.7,21.3,47.5,21.3z M47.4,43.8H43V25.1h4.3c6,0,8.7,2.9,8.7,9.4S53.4,43.8,47.4,43.8z"/>
	<path class="st0" d="M68.1,27.2h-1.8c-0.6,0-1,0.5-1,1v18.3c0,0.6,0.5,1,1,1h1.8c0.6,0,1-0.5,1-1V28.3
		C69.1,27.7,68.7,27.2,68.1,27.2z"/>
	<path class="st0" d="M68.2,21.1h-2.1c-0.6,0-1,0.5-1,1v2.8c0,0.6,0.5,1,1,1h2.1c0.6,0,1-0.5,1-1v-2.8
		C69.2,21.5,68.8,21.1,68.2,21.1z"/>
	<path class="st0" d="M81.1,35.2c-2.4-0.7-3.5-1.1-3.5-2.1c0-1.9,1.9-2.2,3.5-2.2c1.4,0,2.9,0.3,4.3,1c0.3,0.2,0.7,0.1,1-0.1
		s0.5-0.5,0.5-0.9v-1.8c0-0.4-0.2-0.8-0.6-1c-1.8-0.8-3.6-1.2-5.3-1.2c-5.4,0-7.3,3.3-7.3,6.1c0,4.1,3.6,5.1,6.3,5.8
		c2.8,0.8,4.1,1.3,4.1,2.9c0,2-2.6,2.2-3.8,2.2c-1.8,0-3.5-0.4-5.2-1.3c-0.3-0.2-0.7-0.2-1,0s-0.5,0.5-0.5,0.9v2
		c0,0.4,0.2,0.8,0.6,0.9c1.9,0.9,4,1.4,6.2,1.4c4.7,0,7.7-2.3,7.7-6.1C87.9,37.1,83.8,35.9,81.1,35.2z"/>
	<path class="st0" d="M102.3,43.9c-0.3-0.2-0.6-0.2-0.9-0.1c-0.6,0.2-1.2,0.3-1.9,0.3c-1.6,0-2.1-0.5-2.1-2V31h4.2c0.6,0,1-0.5,1-1
		v-1.7c0-0.6-0.5-1-1-1h-4.2v-4.1c0-0.6-0.5-1-1-1h-1.9c-0.6,0-1,0.5-1,1v4.1h-1.9c-0.6,0-1,0.5-1,1V30c0,0.6,0.5,1,1,1h1.9v11.1
		c0,3.7,2.1,5.8,5.8,5.8c0.9,0,1.8-0.1,2.7-0.4c0.5-0.1,0.8-0.5,0.8-1v-1.8C102.8,44.4,102.6,44.1,102.3,43.9z"/>
	<path class="st0" d="M114.5,26.9c-6.8,0-9.2,5.6-9.2,10.8c0,8.8,6.1,10.1,9.7,10.1c2.4,0,4.8-0.5,6.5-1.3c0.4-0.2,0.6-0.5,0.6-0.9
		v-1.9c0-0.4-0.2-0.7-0.5-0.9s-0.7-0.2-1,0c-1.3,0.7-3.4,1.2-5.5,1.2c-3.4,0-5.1-1.2-5.5-4c0-0.1,0-0.2-0.1-0.2c0-0.1,0-0.1-0.1-0.2
		h12.8c0.6,0,1-0.4,1-0.9c0-0.1,0-0.4,0-1.1C123.4,32.4,121.1,26.9,114.5,26.9z M109.4,35.8c0.4-3.4,2-5,5-5c3.7,0,4.7,3,5,5H109.4z
		"/>
	<path class="st0" d="M142.5,27.9c-1.9-0.7-3.8-1-5.7-1c-3.6,0-9.6,1.4-9.6,10.5c0,6.8,3.4,10.5,9.6,10.5c1.9,0,3.8-0.4,5.7-1
		c0.4-0.2,0.7-0.5,0.7-1v-1.8c0-0.3-0.2-0.7-0.5-0.9s-0.7-0.2-1-0.1c-1.5,0.6-3.1,0.9-4.7,0.9c-4.1,0-5.9-2-5.9-6.6s1.8-6.6,5.9-6.6
		c1.5,0,3.2,0.3,4.8,0.9c0.3,0.1,0.7,0.1,1-0.1s0.4-0.5,0.4-0.9v-1.8C143.2,28.5,142.9,28.1,142.5,27.9z"/>
	<path class="st0" d="M156,26.9c-4.1,0-7.4,1.6-8.3,2.1c-0.3,0.2-0.6,0.5-0.6,0.9v16.7c0,0.6,0.5,1,1,1h1.8c0.6,0,1-0.5,1-1V31.7
		c1.6-0.6,3.2-0.9,4.8-0.9c3.8,0,4.4,1.8,4.4,3.8v11.9c0,0.6,0.5,1,1,1h1.9c0.6,0,1-0.5,1-1V34.6C164.1,29.7,161.1,26.9,156,26.9z"
		/>
	<path class="st0" d="M176.7,26.9c-2.5,0-4.6,0.6-5.6,0.9c-0.4,0.1-0.7,0.5-0.7,1v1.8c0,0.3,0.2,0.6,0.4,0.8
		c0.3,0.2,0.6,0.3,0.9,0.2c0.6-0.2,2.6-0.8,4.9-0.8c3,0,4.6,1.1,4.9,3.5c-1-0.1-2.1-0.2-3.3-0.2c-6.1,0-9.8,2.6-9.8,7
		c0,5,4.5,6.7,8.7,6.7c2,0,8.4-0.5,8.4-6.7v-5.6C185.6,29.9,182.6,26.9,176.7,26.9z M181.6,41.2c0,1.9-1.5,2.9-4.5,2.9
		c-1.8,0-4.7-0.4-4.7-3c0-2.8,3.9-3.1,5.6-3.1c1.3,0,2.5,0.1,3.6,0.2L181.6,41.2L181.6,41.2z"/>
</g>
</svg>
